<?xml version="1.0" standalone="no"?>
<!DOCTYPE svg PUBLIC "-//W3C//DTD SVG 20010904//EN"
 "http://www.w3.org/TR/2001/REC-SVG-20010904/DTD/svg10.dtd">
<svg version="1.0" xmlns="http://www.w3.org/2000/svg"
 width="1223.000000pt" height="1223.000000pt" viewBox="0 0 1223.000000 1223.000000"
 preserveAspectRatio="xMidYMid meet">
<metadata>
Created by potrace 1.14, written by Peter Selinger 2001-2017
</metadata>
<g transform="translate(0.000000,1223.000000) scale(0.100000,-0.100000)"
fill="#000000" stroke="none">
<path d="M1395 11470 c-447 -68 -708 -418 -657 -880 36 -324 220 -537 537
-621 152 -41 477 -27 652 27 l53 17 2 236 3 236 78 3 78 3 -3 82 -3 82 -272 3
-273 2 0 -85 0 -85 85 0 85 0 -1 -122 c0 -68 -4 -143 -7 -168 l-7 -45 -80 -13
c-168 -27 -339 -1 -438 66 -90 62 -152 147 -194 264 -22 62 -27 94 -31 210 -5
163 11 250 64 354 92 180 262 263 509 250 61 -3 133 -11 160 -19 l50 -13 3
-117 3 -117 104 0 105 0 0 189 0 189 -47 15 c-176 56 -408 80 -558 57z"/>
<path d="M7684 11470 c-170 -24 -287 -85 -372 -195 -4 -5 -19 -32 -32 -60 -48
-100 -37 -306 22 -388 73 -102 151 -140 461 -226 147 -41 214 -68 247 -99 49
-47 65 -147 34 -220 -29 -71 -88 -115 -187 -142 -61 -16 -216 -8 -307 17 l-65
18 -3 103 -3 102 -119 0 -120 0 0 -179 0 -179 28 -10 c95 -38 306 -66 487 -65
137 0 157 2 225 27 239 85 340 230 328 468 -6 111 -32 173 -103 240 -77 72
-138 99 -355 155 -297 77 -350 112 -350 234 0 107 57 172 178 203 78 21 206
20 287 0 l65 -16 0 -90 0 -89 113 3 112 3 0 160 0 160 -40 13 c-134 45 -400
71 -531 52z"/>
<path d="M9175 11474 c-297 -41 -506 -178 -613 -404 -61 -129 -77 -208 -77
-380 1 -165 12 -230 60 -336 94 -206 246 -328 483 -386 123 -30 350 -30 517 1
66 12 135 27 153 33 l32 12 -2 201 -3 200 -102 3 -101 3 -4 -130 c-2 -71 -6
-132 -10 -136 -13 -14 -184 -27 -278 -22 -93 5 -179 28 -240 65 -49 30 -156
148 -179 197 -50 106 -63 172 -64 315 -1 211 39 327 152 441 56 55 79 71 148
97 111 43 247 53 387 28 l96 -18 0 -119 0 -119 110 0 110 0 0 184 c0 135 -3
186 -12 194 -19 15 -144 49 -228 62 -82 12 -287 21 -335 14z"/>
<path d="M2252 11368 l3 -83 75 -5 75 -5 0 -187 c0 -104 -1 -359 -3 -568 l-2
-380 -76 0 -75 0 2 -85 2 -85 278 0 279 0 0 85 0 85 -85 0 -85 0 0 230 0 230
85 0 c54 0 96 -5 113 -14 26 -14 78 -81 120 -156 10 -19 56 -98 102 -175 160
-272 168 -278 353 -284 l127 -3 0 85 0 84 -51 5 c-28 3 -62 14 -76 24 -14 11
-67 89 -119 174 -51 85 -103 171 -115 190 -38 59 -91 109 -128 122 l-36 11 35
9 c142 37 224 97 276 205 27 54 29 66 29 178 0 112 -2 124 -28 176 -54 106
-139 172 -264 204 -46 12 -132 15 -436 15 l-378 0 3 -82z m677 -99 c64 -13
107 -43 146 -98 28 -40 30 -49 30 -134 0 -101 -9 -125 -71 -183 -52 -48 -121
-64 -269 -64 l-128 0 6 143 c4 78 7 188 7 245 l0 102 115 0 c62 0 137 -5 164
-11z"/>
<path d="M4242 11373 c-17 -43 -58 -143 -90 -223 -33 -80 -85 -207 -116 -283
-31 -76 -60 -146 -65 -155 -5 -9 -16 -35 -24 -57 -9 -22 -38 -94 -65 -160 -27
-66 -69 -167 -92 -225 -24 -58 -48 -111 -53 -117 -6 -8 -33 -13 -68 -13 l-59
0 0 -85 0 -85 260 0 260 0 0 85 0 85 -75 0 c-41 0 -75 3 -75 8 0 7 16 51 93
262 l35 95 265 3 265 2 5 -22 c3 -13 30 -95 61 -182 31 -87 56 -161 56 -163 0
-1 -29 -3 -65 -3 l-65 0 0 -85 0 -85 270 0 270 0 0 85 0 84 -67 3 -68 3 -83
220 c-45 121 -92 246 -104 279 -11 32 -27 70 -34 85 -8 14 -14 32 -14 39 0 7
-4 20 -10 30 -5 9 -28 67 -51 127 -47 127 -127 336 -171 448 l-31 77 -132 0
-132 0 -31 -77z m213 -338 c37 -110 72 -209 78 -220 5 -10 16 -41 23 -67 l12
-48 -194 0 -194 0 22 53 c11 28 32 81 45 117 13 36 41 108 63 160 21 52 46
121 55 153 9 32 18 57 20 55 1 -2 33 -93 70 -203z"/>
<path d="M5230 11365 l0 -84 87 -3 87 -3 -3 -560 c-1 -308 -5 -563 -7 -567 -3
-5 -36 -8 -75 -8 l-69 0 0 -85 0 -85 285 0 285 0 0 85 0 85 -90 0 -90 0 0 245
0 245 229 0 230 0 3 91 c2 50 1 93 -1 95 -2 2 -107 4 -233 4 l-228 0 0 163 c0
89 3 192 7 230 l6 67 213 0 214 0 0 -64 c0 -35 3 -84 6 -110 l7 -47 96 3 96 3
-1 28 c0 15 -1 101 -2 192 l-2 165 -525 0 -525 0 0 -85z"/>
<path d="M6480 11365 l0 -85 75 0 75 0 -2 -567 -3 -568 -72 -3 -73 -3 0 -84 0
-85 270 0 270 0 0 85 0 84 -77 3 -78 3 4 560 c1 308 5 563 8 568 2 4 35 7 74
7 l69 0 0 85 0 85 -270 0 -270 0 0 -85z"/>
<path d="M9980 11365 l0 -85 75 0 75 0 -2 -567 -3 -568 -72 -3 -73 -3 0 -84 0
-85 275 0 275 0 0 85 0 85 -80 0 -80 0 2 238 3 237 343 3 342 2 -2 -237 -3
-238 -72 -3 -73 -3 0 -84 0 -85 270 0 270 0 0 85 0 85 -75 0 -75 0 2 568 3
567 73 3 72 3 0 84 0 85 -270 0 -270 0 0 -85 0 -85 75 0 75 0 0 -237 0 -238
-342 2 -343 2 0 233 0 233 76 3 77 3 1 84 1 85 -275 0 -275 0 0 -85z"/>
<path d="M4527 9525 c-244 -46 -444 -166 -578 -346 -27 -37 -49 -69 -49 -73 0
-3 -10 -23 -23 -44 -34 -54 -74 -168 -94 -269 -25 -130 -22 -350 6 -463 55
-212 119 -329 248 -451 39 -38 172 -129 186 -129 3 0 26 -10 53 -22 27 -12 54
-23 59 -24 6 -1 44 -11 85 -23 169 -46 451 -46 683 0 112 22 194 42 200 49 2
3 7 116 10 253 l6 247 -134 0 -135 0 0 -160 c0 -186 9 -172 -123 -185 -137
-12 -297 -8 -367 10 -71 18 -160 54 -160 64 0 3 -13 12 -29 19 -55 24 -150
139 -197 236 -69 143 -79 195 -78 386 0 137 4 178 22 244 33 119 88 221 157
291 70 72 124 105 226 141 128 44 385 45 532 2 l37 -11 0 -144 0 -143 130 0
130 0 0 235 0 234 -66 21 c-161 49 -252 62 -459 66 -145 2 -221 -1 -278 -11z"/>
<path d="M7423 9512 l-333 -2 0 -105 0 -104 98 -3 97 -3 -4 -520 c-4 -578 2
-666 50 -800 29 -81 72 -138 151 -202 154 -126 525 -166 828 -91 47 12 87 24
90 28 3 3 24 14 47 23 81 32 176 129 227 231 69 140 69 139 75 766 l6 565 88
3 87 3 0 104 0 105 -335 0 -335 0 0 -105 0 -105 105 0 105 0 0 -477 c0 -508
-7 -628 -41 -717 -24 -67 -101 -149 -164 -177 -103 -46 -358 -50 -469 -8 -78
29 -155 105 -187 184 l-24 60 -3 568 -3 567 95 0 96 0 0 104 c0 58 -3 106 -7
108 -5 2 -158 2 -340 0z"/>
<path d="M780 9405 l0 -105 95 0 95 0 0 -457 c0 -252 -3 -569 -7 -705 l-6
-248 -89 0 -88 0 0 -107 0 -108 633 0 634 0 12 230 c6 127 14 245 17 263 l5
32 -124 0 -125 0 -6 -42 c-3 -24 -8 -86 -11 -138 -4 -52 -9 -103 -12 -112 -4
-17 -26 -18 -274 -18 l-269 0 0 488 c0 268 3 585 7 705 l6 217 89 0 88 0 0
105 0 105 -335 0 -335 0 0 -105z"/>
<path d="M1940 9405 l0 -105 78 0 c78 0 79 0 108 -36 16 -20 33 -43 38 -52 5
-8 14 -22 22 -31 7 -9 76 -101 153 -206 77 -104 144 -194 149 -200 4 -5 63
-85 130 -177 l123 -168 -8 -267 -8 -268 -87 -3 -88 -3 0 -107 0 -107 335 0
336 0 -3 105 -3 105 -95 5 -95 5 4 260 c3 248 7 290 31 318 6 6 35 46 65 87
30 41 58 80 63 85 4 6 32 46 63 90 30 44 115 163 189 265 73 102 151 211 173
243 l40 57 84 0 84 0 -3 103 -3 102 -322 3 -323 2 0 -105 0 -104 100 -3 100
-3 -94 -130 c-52 -71 -154 -212 -226 -312 -72 -101 -135 -183 -140 -183 -4 0
-50 57 -101 128 -155 212 -192 262 -277 378 -45 61 -82 114 -82 118 0 3 37 6
83 6 l82 0 -3 105 -3 105 -335 0 -334 0 0 -105z"/>
<path d="M5570 9405 l0 -104 108 -3 107 -3 -4 -695 c-2 -382 -5 -698 -8 -702
-2 -5 -44 -8 -94 -8 l-89 0 0 -107 0 -108 644 3 644 2 6 133 c4 72 9 187 12
255 l6 122 -125 0 -125 0 -6 -102 c-4 -57 -9 -124 -12 -150 l-6 -48 -273 0
c-241 0 -274 2 -279 16 -3 9 -3 146 1 305 l6 289 259 0 258 0 0 115 0 115
-260 0 -260 0 2 283 3 282 265 0 265 0 9 -132 9 -133 125 0 125 0 -7 53 c-3
28 -6 136 -6 240 l0 187 -650 0 -650 0 0 -105z"/>
<path d="M9131 9405 l1 -105 104 0 104 0 0 -262 c0 -145 -3 -462 -7 -705 l-6
-442 -91 -3 -91 -3 0 -103 0 -104 317 -1 318 -2 0 108 0 107 -100 0 -100 0 1
428 c1 235 4 510 8 612 l6 185 19 -75 c10 -41 41 -136 68 -210 28 -74 57 -151
64 -170 7 -19 27 -69 44 -110 17 -41 54 -133 81 -205 27 -71 53 -139 58 -150
5 -11 16 -38 24 -60 8 -22 31 -79 51 -127 19 -49 32 -88 28 -88 -4 0 -2 -4 3
-8 6 -4 31 -58 55 -120 l45 -114 144 0 c167 0 146 -14 201 137 18 50 38 93 44
97 6 4 8 8 4 8 -4 0 8 37 26 83 19 45 48 120 66 167 36 96 48 126 155 405 42
110 92 238 110 285 18 47 43 124 56 173 13 48 26 87 29 87 6 0 1 -1199 -5
-1217 -3 -8 -34 -13 -92 -15 l-88 -3 -3 -105 -3 -105 336 0 335 0 0 108 0 107
-94 0 c-52 0 -97 4 -100 8 -3 5 -6 321 -7 703 l-1 694 101 3 101 3 0 104 0
105 -283 0 -283 0 -21 -47 c-34 -82 -48 -117 -204 -528 -83 -220 -157 -413
-164 -430 -7 -16 -27 -68 -45 -115 -17 -47 -36 -94 -41 -105 -24 -55 -53 -138
-73 -210 l-23 -80 -22 74 c-20 64 -57 167 -148 401 -75 196 -96 248 -110 280
-8 19 -58 147 -110 285 -53 137 -104 270 -113 295 -10 25 -30 75 -45 113 l-27
67 -304 0 -305 0 2 -105z"/>
<path d="M2250 1956 c-96 -30 -140 -48 -140 -58 0 -4 -6 -8 -13 -8 -24 0 -123
-98 -165 -162 -22 -35 -53 -99 -69 -143 -26 -75 -28 -90 -27 -240 0 -151 1
-164 28 -235 31 -82 78 -160 121 -202 113 -113 308 -173 479 -149 152 21 237
61 331 155 117 118 175 275 175 476 0 210 -55 355 -179 467 -120 109 -365 153
-541 99z m312 -164 c89 -39 160 -139 188 -264 20 -86 8 -286 -20 -368 -40
-115 -109 -192 -202 -226 -64 -25 -202 -22 -262 4 -84 38 -133 87 -178 179
-38 79 -41 92 -46 192 -7 156 24 299 80 366 58 71 125 117 197 135 58 15 191
5 243 -18z"/>
<path d="M780 1891 l0 -71 60 0 60 0 -1 -292 c-1 -161 -4 -365 -8 -453 l-6
-160 -53 0 -53 0 3 -70 3 -70 215 0 215 0 3 67 3 67 -68 3 -68 3 1 33 c0 17 1
100 2 183 l2 151 75 -4 c69 -3 78 -6 103 -34 15 -16 32 -39 39 -49 39 -65 141
-238 165 -282 38 -68 94 -121 138 -130 19 -4 71 -8 115 -8 l80 0 3 66 3 66
-48 6 c-40 4 -53 11 -85 48 -21 24 -38 46 -38 50 0 8 -117 203 -149 247 -12
17 -38 41 -59 54 l-37 23 45 10 c130 30 207 126 217 271 11 143 -43 243 -162
303 l-70 36 -322 3 -323 4 0 -71z m562 -87 c54 -20 94 -62 107 -111 29 -104
-4 -191 -88 -235 -49 -26 -63 -28 -162 -28 l-109 0 0 195 0 195 105 0 c72 0
118 -5 147 -16z"/>
<path d="M3026 1923 c-3 -21 -6 -91 -6 -155 l0 -118 85 0 85 0 0 69 c0 106 -6
101 129 101 l116 0 -5 -452 -5 -453 -60 -1 -60 -1 0 -69 0 -69 224 0 223 0 2
68 c1 74 5 70 -72 67 -24 -1 -48 3 -55 8 -9 8 -11 119 -9 456 l2 447 118 -3
117 -3 3 -82 3 -83 84 0 85 0 0 118 c0 64 -3 134 -6 155 l-7 37 -492 0 -492 0
-7 -37z"/>
<path d="M4140 1843 c0 -65 -3 -135 -6 -155 l-7 -38 86 0 c98 0 97 -1 97 108
l0 62 119 0 119 0 -5 -442 c-2 -244 -7 -449 -9 -456 -3 -10 -20 -13 -59 -10
l-56 3 3 -70 3 -70 214 -3 c165 -2 216 1 223 10 4 7 8 39 8 71 l0 57 -71 0
-72 0 5 453 5 452 117 3 116 3 0 -86 0 -85 85 0 85 0 0 155 0 155 -500 0 -500
0 0 -117z"/>
<path d="M5270 1890 l0 -70 70 0 70 0 0 -442 c0 -244 -4 -449 -9 -457 -6 -10
-21 -12 -51 -8 -63 8 -66 5 -64 -71 l3 -67 411 -3 c323 -2 411 0 414 10 3 7 7
84 11 171 l6 157 -80 0 -79 0 -7 -87 c-3 -49 -8 -94 -10 -101 -4 -10 -44 -12
-177 -10 l-173 3 -3 198 -2 197 170 0 170 0 0 70 0 70 -154 0 c-85 0 -162 3
-171 6 -14 6 -16 29 -15 185 l2 179 174 0 174 0 0 -62 c0 -108 1 -108 86 -108
l74 0 0 155 0 155 -420 0 -420 0 0 -70z"/>
<path d="M6290 1891 l0 -71 60 0 60 0 0 -228 c0 -126 -3 -331 -7 -455 l-6
-227 -54 0 -53 0 0 -70 0 -70 220 0 220 0 0 73 0 72 -67 0 -68 0 0 48 c1 26 2
108 3 183 l2 136 75 -4 c64 -3 78 -7 99 -28 23 -25 226 -355 226 -369 0 -4 19
-26 41 -49 47 -47 75 -56 194 -56 l80 -1 3 68 c2 37 -1 67 -5 68 -4 1 -26 3
-47 5 -38 3 -96 44 -96 67 0 6 -10 24 -23 41 -12 17 -31 47 -41 66 -48 92
-132 206 -163 220 -38 18 -42 30 -10 30 38 0 123 48 166 95 53 57 75 132 69
230 -8 129 -72 219 -186 266 -55 22 -70 23 -374 27 l-318 3 0 -70z m587 -94
c18 -9 45 -34 60 -54 25 -33 28 -45 28 -113 0 -90 -21 -131 -89 -170 -35 -20
-58 -24 -158 -28 l-118 -4 0 197 0 197 123 -4 c90 -3 130 -8 154 -21z"/>
<path d="M7450 1891 l0 -71 66 0 66 0 -7 -447 c-4 -247 -9 -451 -12 -455 -2
-5 -29 -8 -59 -8 l-55 0 3 -67 3 -68 290 -3 c317 -3 399 4 505 46 87 34 129
62 193 125 190 190 225 559 75 784 -71 105 -145 157 -289 205 -59 19 -92 21
-421 25 l-358 5 0 -71z m632 -82 c115 -24 223 -100 268 -189 76 -149 66 -391
-23 -523 -85 -126 -189 -175 -388 -184 -69 -3 -138 -3 -153 1 l-26 6 0 164 c0
89 3 292 7 449 l6 287 128 0 c70 0 152 -5 181 -11z"/>
<path d="M9124 1943 c-3 -10 -15 -40 -26 -68 -46 -115 -130 -320 -188 -460
-34 -82 -85 -208 -115 -280 -29 -71 -62 -152 -74 -178 l-21 -48 -47 3 -48 3
-3 -72 -3 -73 204 0 c229 0 217 -4 217 75 0 66 -4 70 -60 67 -64 -5 -68 5 -35
88 14 36 35 92 46 125 12 33 26 66 31 73 8 9 59 12 215 10 l205 -3 45 -130
c24 -71 45 -137 46 -145 2 -11 -9 -15 -38 -16 -22 -1 -46 -2 -53 -3 -9 -1 -12
-19 -10 -68 l3 -68 215 0 215 0 3 67 3 67 -53 3 c-65 4 -43 -38 -223 438 -177
472 -202 538 -220 578 l-15 32 -105 0 c-92 0 -106 -2 -111 -17z m236 -570 c0
-10 -36 -13 -150 -13 -82 0 -150 1 -150 3 0 2 27 71 60 153 34 82 62 154 63
159 2 6 11 34 21 63 l18 52 69 -202 c38 -112 69 -208 69 -215z"/>
<path d="M9960 1890 l0 -70 65 0 65 0 0 -378 c0 -209 -3 -414 -7 -456 l-6 -78
-56 4 -56 3 0 -70 0 -70 199 -3 c153 -2 201 1 208 10 9 14 11 99 3 120 -4 9
-18 12 -45 10 -22 -2 -50 -2 -63 2 l-23 5 4 378 c2 208 5 383 6 388 2 6 7 -3
10 -20 12 -52 137 -392 181 -490 7 -16 30 -73 50 -125 20 -52 53 -137 73 -188
l37 -93 93 3 94 3 24 63 c13 34 29 77 37 95 21 47 38 92 118 302 39 105 78
204 85 220 22 50 74 212 74 231 0 10 3 14 8 8 5 -5 6 -182 3 -394 l-6 -385
-58 -3 -58 -3 3 -67 3 -67 213 -3 212 -2 0 72 0 73 -50 -3 c-28 -2 -57 1 -64
7 -11 10 -14 94 -15 456 l-2 445 66 0 65 0 0 70 0 70 -184 0 -183 0 -23 -62
c-30 -83 -248 -654 -265 -693 -25 -60 -44 -111 -61 -165 l-17 -54 -12 39 c-11
37 -100 273 -193 510 -22 55 -67 173 -102 263 l-63 162 -194 0 -193 0 0 -70z"/>
</g>
</svg>
